<?xml version="1.0" encoding="iso-8859-1"?>
<!-- Generator: Adobe Illustrator 19.0.0, SVG Export Plug-In . SVG Version: 6.00 Build 0)  -->
<svg version="1.1" id="Layer_1" xmlns="http://www.w3.org/2000/svg" xmlns:xlink="http://www.w3.org/1999/xlink" x="0px" y="0px"
	 viewBox="0 0 512.001 512.001" style="enable-background:new 0 0 512.001 512.001;" xml:space="preserve">
<g>
	<g>
		<path d="M506.54,44.038L382.625,0.463c-1.753-0.617-3.666-0.617-5.421,0L256,43.085L134.794,0.463
			c-1.753-0.617-3.666-0.617-5.421,0L5.459,44.038C2.189,45.187,0,48.278,0,51.745V503.83c0,2.65,1.285,5.135,3.448,6.667
			c2.164,1.532,4.934,1.919,7.433,1.04l121.205-42.621l121.206,42.621c1.754,0.617,3.666,0.617,5.421,0l121.203-42.621
			l121.206,42.621c0.882,0.31,1.797,0.463,2.709,0.463c1.67,0,3.325-0.512,4.724-1.503c2.162-1.532,3.448-4.018,3.448-6.667V51.745
			C512,48.278,509.811,45.187,506.54,44.038z M123.915,77.456c0,0.011,0,149.772,0,149.772l-53.093,18.671
			c-3.271,1.15-5.46,4.24-5.46,7.707v51.744c0,4.512,3.658,8.17,8.17,8.17s8.17-3.658,8.17-8.17v-45.956l42.213-14.844v140.633
			l-42.213,14.844v-40.209c0-4.512-3.658-8.17-8.17-8.17s-8.17,3.658-8.17,8.17v51.744c0,2.65,1.285,5.135,3.448,6.667
			c2.163,1.532,4.934,1.918,7.433,1.04l47.673-16.763v51.964L16.34,492.297V57.533l107.574-37.828V77.456z M247.83,492.296
			l-107.574-37.828v-51.964l107.574,37.828V492.296z M247.83,265.055l-45.617-16.041v-44.758c0-4.512-3.658-8.17-8.17-8.17
			c-4.512,0-8.17,3.658-8.17,8.17v50.545c0,3.467,2.188,6.558,5.46,7.707l56.498,19.867v140.633l-107.574-37.828V88.989
			l45.617,16.041v44.759c0,4.512,3.658,8.17,8.17,8.17c4.512,0,8.17-3.658,8.17-8.17v-39.013l45.617,16.041V265.055z
			 M247.83,109.496L140.255,71.668V19.705L247.83,57.533V109.496z M388.085,88.989l42.213,14.845v138.239l-42.213-14.845V88.989z
			 M264.17,57.533l107.574-37.828v51.964L264.17,109.496V57.533z M264.17,126.817l45.617-16.041v39.012
			c0,4.512,3.658,8.17,8.17,8.17s8.17-3.658,8.17-8.17V105.03l45.617-16.041v138.239l-45.617,16.041v-39.012
			c0-4.512-3.658-8.17-8.17-8.17s-8.17,3.658-8.17,8.17v44.759l-45.617,16.041V126.817z M371.745,454.468L264.17,492.296v-51.964
			l107.574-37.828V454.468z M379.915,320.163c-4.512,0-8.17,3.658-8.17,8.17v56.851L264.17,423.011V282.378l107.574-37.828v51.103
			c0,4.512,3.658,8.17,8.17,8.17c4.512,0,8.17-3.658,8.17-8.17v-51.104l42.213,14.845v140.633l-42.213-14.844v-56.849
			C388.085,323.821,384.427,320.163,379.915,320.163z M495.66,492.297l-107.574-37.828v-51.965l47.674,16.764
			c2.499,0.88,5.27,0.491,7.433-1.04c2.162-1.532,3.448-4.018,3.448-6.667V98.046c0-3.467-2.189-6.558-5.46-7.707l-53.094-18.671
			V19.705L495.66,57.533V492.297z"/>
	</g>
</g>
<g>
</g>
<g>
</g>
<g>
</g>
<g>
</g>
<g>
</g>
<g>
</g>
<g>
</g>
<g>
</g>
<g>
</g>
<g>
</g>
<g>
</g>
<g>
</g>
<g>
</g>
<g>
</g>
<g>
</g>
</svg>
